<svg width="18" height="18" viewBox="0 0 18 18" fill="none" xmlns="http://www.w3.org/2000/svg">
<path d="M2.69019 10.3342C4.02477 11.6609 6.35224 13.5 9.00023 13.5C11.6482 13.5 13.9755 11.6609 15.31 10.3342L15.3107 10.3335C15.6625 9.98376 15.8386 9.80867 15.9507 9.46518C16.0306 9.22005 16.0306 8.77994 15.9507 8.53482C15.8386 8.19131 15.6625 8.0162 15.3106 7.66639L15.31 7.66583C13.9755 6.33906 11.6482 4.5 9.00023 4.5C6.35224 4.5 4.02477 6.33906 2.69019 7.66583C2.33794 8.01602 2.16181 8.19113 2.04969 8.53482C1.96972 8.77994 1.96972 9.22005 2.04969 9.46518C2.1618 9.80885 2.33793 9.98395 2.69014 10.3341L2.69019 10.3342Z" stroke="white" stroke-width="2" stroke-linecap="round" stroke-linejoin="round"/>
</svg>
