<svg width="18" height="18" viewBox="0 0 18 18" fill="none" xmlns="http://www.w3.org/2000/svg">
<path d="M3 15H2C2 15.5523 2.44772 16 3 16V15ZM15 16C15.5523 16 16 15.5523 16 15C16 14.4477 15.5523 14 15 14V16ZM3 12L2.29289 11.2929C2.10536 11.4804 2 11.7348 2 12H3ZM11.1515 3.84851L10.4444 3.1414L10.4444 3.1414L11.1515 3.84851ZM12.8485 3.84851L12.1414 4.55562V4.55562L12.8485 3.84851ZM14.1515 5.15145L14.8586 4.44435V4.44435L14.1515 5.15145ZM14.1515 6.84851L13.4444 6.1414V6.1414L14.1515 6.84851ZM6 15L6.00001 16C6.26522 16 6.51957 15.8946 6.70711 15.7071L6 15ZM14.6526 5.76825L15.6037 5.45924V5.45924L14.6526 5.76825ZM14.6526 6.23172L13.7016 5.9227L14.6526 6.23172ZM11.7683 3.34735L11.4592 2.39629L11.7683 3.34735ZM12.2318 3.34735L12.5408 2.39629L12.2318 3.34735ZM9.70711 5.29289C9.31658 4.90237 8.68342 4.90237 8.29289 5.29289C7.90237 5.68342 7.90237 6.31658 8.29289 6.70711L9.70711 5.29289ZM11.2929 9.70711C11.6834 10.0976 12.3166 10.0976 12.7071 9.70711C13.0976 9.31658 13.0976 8.68342 12.7071 8.29289L11.2929 9.70711ZM3 16H15V14H3V16ZM4 15V12H2V15H4ZM3.70711 12.7071L11.8586 4.55562L10.4444 3.1414L2.29289 11.2929L3.70711 12.7071ZM12.1414 4.55562L13.4443 5.85856L14.8586 4.44435L13.5556 3.1414L12.1414 4.55562ZM13.4444 6.1414L5.29289 14.2929L6.70711 15.7071L14.8586 7.55562L13.4444 6.1414ZM5.99999 14L2.99999 14L3.00001 16L6.00001 16L5.99999 14ZM13.4443 5.85856C13.5202 5.93443 13.5791 5.99339 13.6291 6.04496C13.6791 6.09655 13.7101 6.13048 13.7302 6.1542C13.7713 6.20258 13.7308 6.16722 13.7016 6.07727L15.6037 5.45924C15.5188 5.19804 15.3763 5.00278 15.2549 4.85983C15.1411 4.7258 14.9954 4.58119 14.8586 4.44435L13.4443 5.85856ZM14.8586 7.55562C14.9954 7.41877 15.1411 7.27416 15.2549 7.14012C15.3763 6.99717 15.5188 6.80191 15.6037 6.54074L13.7016 5.9227C13.7308 5.83277 13.7713 5.79741 13.7302 5.84578C13.7101 5.8695 13.6791 5.90342 13.6291 5.95501C13.5792 6.00658 13.5202 6.06554 13.4444 6.1414L14.8586 7.55562ZM13.7016 6.07727C13.6853 6.02706 13.6853 5.97292 13.7016 5.9227L15.6037 6.54074C15.7179 6.18926 15.7179 5.81071 15.6037 5.45924L13.7016 6.07727ZM11.8586 4.55562C11.9344 4.47975 11.9934 4.42084 12.045 4.37087C12.0965 4.32088 12.1305 4.2899 12.1542 4.26977C12.2025 4.22872 12.1672 4.26919 12.0773 4.29841L11.4592 2.39629C11.1981 2.48115 11.0028 2.6237 10.8599 2.74506C10.7258 2.85885 10.5812 3.00455 10.4444 3.1414L11.8586 4.55562ZM13.5556 3.1414C13.4188 3.00461 13.2742 2.8589 13.1402 2.74513C12.9973 2.62377 12.8021 2.48117 12.5408 2.39629L11.9228 4.29841C11.8328 4.26917 11.7974 4.22865 11.8458 4.2697C11.8695 4.28984 11.9034 4.32082 11.955 4.37082C12.0066 4.42081 12.0655 4.47973 12.1414 4.55562L13.5556 3.1414ZM12.0773 4.29841C12.0271 4.31472 11.973 4.31472 11.9228 4.29841L12.5408 2.39629C12.1894 2.28209 11.8107 2.28209 11.4592 2.39629L12.0773 4.29841ZM8.29289 6.70711L11.2929 9.70711L12.7071 8.29289L9.70711 5.29289L8.29289 6.70711Z" fill="white"/>
</svg>
