<svg width="20" height="23" viewBox="0 0 20 23" fill="none" xmlns="http://www.w3.org/2000/svg">
<path d="M10.2456 5.96121C9.53568 5.96121 8.84171 6.13655 8.25143 6.46504C7.66116 6.79354 7.20109 7.26045 6.92942 7.80672C6.65774 8.35299 6.58666 8.95409 6.72516 9.53401C6.86366 10.1139 7.20552 10.6466 7.7075 11.0647C8.20949 11.4828 8.84906 11.7675 9.54534 11.8829C10.2416 11.9982 10.9633 11.939 11.6192 11.7128C12.2751 11.4865 12.8357 11.1033 13.2301 10.6117C13.6245 10.1201 13.835 9.54205 13.835 8.95077C13.8339 8.15817 13.4554 7.39829 12.7825 6.83783C12.1096 6.27737 11.1972 5.96211 10.2456 5.96121ZM10.2456 10.4456C9.89064 10.4456 9.54365 10.3579 9.24852 10.1936C8.95338 10.0294 8.72335 9.79594 8.58751 9.5228C8.45167 9.24966 8.41613 8.94911 8.48538 8.65916C8.55463 8.3692 8.72556 8.10285 8.97655 7.8938C9.22755 7.68475 9.54733 7.54239 9.89547 7.48471C10.2436 7.42704 10.6045 7.45664 10.9324 7.56978C11.2603 7.68291 11.5406 7.8745 11.7378 8.12032C11.935 8.36613 12.0403 8.65513 12.0403 8.95077C12.0398 9.34707 11.8505 9.72701 11.514 10.0072C11.1776 10.2875 10.7214 10.4451 10.2456 10.4456Z" fill="black"/>
<path d="M17.143 3.20159C15.4376 1.78157 13.1612 0.938022 10.7529 0.833748C8.34472 0.729475 5.97549 1.37187 4.1025 2.63695C2.22952 3.90204 0.98556 5.70012 0.610717 7.68418C0.235874 9.66823 0.756718 11.6976 2.07272 13.3806L8.85376 22.051C9.00467 22.2439 9.21099 22.4024 9.45405 22.5121C9.6971 22.6219 9.96919 22.6793 10.2456 22.6793C10.5221 22.6793 10.7942 22.6219 11.0372 22.5121C11.2803 22.4024 11.4866 22.2439 11.6375 22.051L18.4188 13.3806C19.6399 11.8194 20.1795 9.95599 19.9473 8.10277C19.715 6.24955 18.7249 4.51914 17.143 3.20159ZM16.915 12.5647L10.2457 21.092L3.57624 12.5647C1.53476 9.9545 1.97261 6.46138 4.61735 4.25854C5.35646 3.64293 6.23392 3.1546 7.19964 2.82143C8.16535 2.48827 9.20039 2.31679 10.2457 2.31679C11.291 2.31679 12.326 2.48827 13.2917 2.82143C14.2574 3.1546 15.1349 3.64293 15.874 4.25854C18.5187 6.46138 18.9565 9.9545 16.915 12.5647Z" fill="black"/>
</svg>
