<svg width="18" height="18" viewBox="0 0 18 18" fill="none" xmlns="http://www.w3.org/2000/svg">
<path d="M10.5 7.5V12.75M7.5 7.5L7.5 12.75M3 4.5L15 4.5M13.5 4.5V13.35C13.5 14.1901 13.5002 14.6102 13.3367 14.931C13.1929 15.2133 12.9631 15.4427 12.6808 15.5865C12.36 15.75 11.9402 15.75 11.1001 15.75H6.90015C6.06007 15.75 5.63972 15.75 5.31885 15.5865C5.0366 15.4427 4.8073 15.2133 4.66349 14.931C4.5 14.6102 4.5 14.1901 4.5 13.35L4.5 4.5H13.5ZM12 4.5H6C6 3.80109 6 3.45162 6.11418 3.17596C6.26642 2.80842 6.55824 2.51642 6.92578 2.36418C7.20144 2.25 7.55109 2.25 8.25 2.25H9.75C10.4489 2.25 10.7984 2.25 11.074 2.36418C11.4416 2.51642 11.7335 2.80842 11.8857 3.17596C11.9999 3.45162 12 3.80109 12 4.5Z" stroke="white" stroke-width="2" stroke-linecap="round" stroke-linejoin="round"/>
</svg>
