<svg width="18" height="18" viewBox="0 0 18 18" fill="none" xmlns="http://www.w3.org/2000/svg">
<path d="M9 11.25L11.25 9M11.25 9L9 6.75M11.25 9L3 9M3 12.75C3 13.4489 3 13.7984 3.11418 14.074C3.26642 14.4416 3.55861 14.7336 3.92615 14.8858C4.2018 15 4.55109 15 5.25 15H12.6C13.4401 15 13.86 15 14.1808 14.8365C14.4631 14.6927 14.6929 14.4633 14.8367 14.181C15.0002 13.8602 15 13.44 15 12.6V5.39996C15 4.55988 15.0002 4.1399 14.8367 3.81903C14.6929 3.53679 14.4631 3.3073 14.1808 3.16349C13.86 3 13.4401 3 12.6 3H5.25C4.55109 3 4.2018 3 3.92615 3.11418C3.55861 3.26642 3.26642 3.55842 3.11418 3.92596C3 4.20162 3 4.55108 3 5.24999" stroke="white" stroke-width="2" stroke-linecap="round" stroke-linejoin="round"/>
</svg>
