<svg width="183" height="107" viewBox="0 0 183 107" fill="none" xmlns="http://www.w3.org/2000/svg">
<g filter="url(#filter0_f_13_49)">
<path d="M49.9614 60.4169C68.2619 60.4169 83.0973 51.2176 83.0973 39.8696C83.0973 28.5216 68.2619 19.3222 49.9614 19.3222C31.6609 19.3222 16.8254 28.5216 16.8254 39.8696C16.8254 51.2176 31.6609 60.4169 49.9614 60.4169Z" fill="#FA9E42"/>
<g filter="url(#filter1_f_13_49)">
<path d="M47.5669 36.9476C58.5797 33.3388 64.7394 27.1981 61.325 23.2319C57.9105 19.2658 46.215 18.9762 35.2022 22.585C24.1894 26.1939 18.0297 32.3346 21.4442 36.3007C24.8586 40.2668 36.5542 40.5564 47.5669 36.9476Z" fill="#F8E36F"/>
</g>
<path d="M56.2966 58.2437C56.5374 58.2474 58.9818 63.4839 58.9818 65.5187C58.9818 67.5535 57.7795 69.2033 56.2966 69.2033C54.8137 69.2033 53.6114 67.5537 53.6114 65.5189C53.6114 63.4841 56.0557 58.2402 56.2966 58.2437Z" fill="#42A0F0"/>
<path d="M54.9996 66.1413C55.3919 66.2153 55.9086 65.8743 56.1537 65.3797C56.3988 64.8851 56.2794 64.4242 55.8871 64.3502C55.4948 64.2762 54.9781 64.6172 54.733 65.1118C54.4879 65.6064 54.6073 66.0673 54.9996 66.1413Z" fill="white"/>
<path d="M74.9295 58.2437C75.1703 58.2474 77.6146 63.4839 77.6146 65.5187C77.6146 67.5535 76.4123 69.2033 74.9295 69.2033C73.4466 69.2033 72.2443 67.5537 72.2443 65.5189C72.2443 63.4841 74.6886 58.2402 74.9295 58.2437Z" fill="#42A0F0"/>
<path d="M73.6325 66.1413C74.0248 66.2153 74.5415 65.8743 74.7866 65.3797C75.0317 64.8851 74.9123 64.4242 74.52 64.3502C74.1277 64.2762 73.611 64.6172 73.3659 65.1118C73.1208 65.6064 73.2402 66.0673 73.6325 66.1413Z" fill="white"/>
<path d="M94.9217 58.2437C95.1626 58.2474 97.6069 63.4839 97.6069 65.5187C97.6069 67.5535 96.4046 69.2033 94.9217 69.2033C93.4388 69.2033 92.2365 67.5537 92.2365 65.5189C92.2365 63.4841 94.6808 58.2402 94.9217 58.2437Z" fill="#42A0F0"/>
<path d="M93.6247 66.1413C94.017 66.2153 94.5337 65.8743 94.7788 65.3797C95.0239 64.8851 94.9046 64.4242 94.5123 64.3502C94.12 64.2762 93.6033 64.6172 93.3582 65.1118C93.1131 65.6064 93.2324 66.0673 93.6247 66.1413Z" fill="white"/>
<path d="M113.386 57.6212C113.627 57.6249 116.071 62.8614 116.071 64.8962C116.071 66.931 114.869 68.5808 113.386 68.5808C111.903 68.5808 110.701 66.9312 110.701 64.8964C110.701 62.8616 113.145 57.6177 113.386 57.6212Z" fill="#42A0F0"/>
<path d="M112.089 65.5188C112.481 65.5928 112.998 65.2518 113.243 64.7572C113.488 64.2626 113.369 63.8017 112.977 63.7277C112.584 63.6537 112.068 63.9947 111.822 64.4893C111.577 64.9839 111.697 65.4448 112.089 65.5188Z" fill="white"/>
<path d="M84.3376 72.1498C84.5785 72.1535 87.0228 77.39 87.0228 79.4248C87.0228 81.4596 85.8205 83.1094 84.3376 83.1094C82.8547 83.1094 81.6524 81.4598 81.6524 79.425C81.6524 77.3902 84.0967 72.1463 84.3376 72.1498Z" fill="#42A0F0"/>
<path d="M83.0406 80.0474C83.4329 80.1214 83.9496 79.7804 84.1947 79.2858C84.4398 78.7912 84.3205 78.3303 83.9282 78.2563C83.5359 78.1823 83.0191 78.5233 82.7741 79.0179C82.529 79.5125 82.6483 79.9734 83.0406 80.0474Z" fill="white"/>
<path d="M104.329 72.1498C104.57 72.1535 107.014 77.39 107.014 79.4248C107.014 81.4596 105.812 83.1094 104.329 83.1094C102.846 83.1094 101.644 81.4598 101.644 79.425C101.644 77.3902 104.088 72.1463 104.329 72.1498Z" fill="#42A0F0"/>
<path d="M103.032 80.0474C103.424 80.1214 103.941 79.7804 104.186 79.2858C104.431 78.7912 104.312 78.3303 103.92 78.2563C103.527 78.1823 103.011 78.5233 102.765 79.0179C102.52 79.5125 102.64 79.9734 103.032 80.0474Z" fill="white"/>
<path d="M125.496 72.1498C125.737 72.1535 128.182 77.39 128.182 79.4248C128.182 81.4596 126.979 83.1094 125.496 83.1094C124.014 83.1094 122.811 81.4598 122.811 79.425C122.811 77.3902 125.256 72.1463 125.496 72.1498Z" fill="#42A0F0"/>
<path d="M124.199 80.0474C124.592 80.1214 125.108 79.7804 125.354 79.2858C125.599 78.7912 125.479 78.3303 125.087 78.2563C124.695 78.1823 124.178 78.5233 123.933 79.0179C123.688 79.5125 123.807 79.9734 124.199 80.0474Z" fill="white"/>
<path d="M64.3471 72.7723C64.5879 72.776 67.0322 78.0125 67.0322 80.0473C67.0322 82.0821 65.8299 83.7319 64.3471 83.7319C62.8642 83.7319 61.6619 82.0823 61.6619 80.0475C61.6619 78.0127 64.1062 72.7688 64.3471 72.7723Z" fill="#42A0F0"/>
<path d="M63.0501 80.6699C63.4424 80.7439 63.9591 80.4029 64.2042 79.9083C64.4493 79.4137 64.3299 78.9528 63.9376 78.8788C63.5453 78.8048 63.0286 79.1458 62.7835 79.6404C62.5384 80.135 62.6578 80.5959 63.0501 80.6699Z" fill="white"/>
<path d="M45.5308 72.1498C45.7716 72.1535 48.216 77.39 48.216 79.4248C48.216 81.4596 47.0136 83.1094 45.5308 83.1094C44.0479 83.1094 42.8456 81.4598 42.8456 79.425C42.8456 77.3902 45.2899 72.1463 45.5308 72.1498Z" fill="#42A0F0"/>
<path d="M44.2338 80.0474C44.6261 80.1214 45.1428 79.7804 45.3879 79.2858C45.633 78.7912 45.5136 78.3303 45.1213 78.2563C44.729 78.1823 44.2123 78.5233 43.9672 79.0179C43.7221 79.5125 43.8415 79.9734 44.2338 80.0474Z" fill="white"/>
<path d="M56.2966 83.1498C56.5374 83.1535 58.9818 88.39 58.9818 90.4248C58.9818 92.4596 57.7795 94.1094 56.2966 94.1094C54.8137 94.1094 53.6114 92.4598 53.6114 90.425C53.6114 88.3902 56.0557 83.1463 56.2966 83.1498Z" fill="#42A0F0"/>
<path d="M54.9996 91.0474C55.3919 91.1214 55.9086 90.7805 56.1537 90.2859C56.3988 89.7913 56.2794 89.3303 55.8871 89.2563C55.4948 89.1823 54.9781 89.5233 54.733 90.0179C54.4879 90.5125 54.6073 90.9734 54.9996 91.0474Z" fill="white"/>
<path d="M74.9295 83.1498C75.1703 83.1535 77.6146 88.39 77.6146 90.4248C77.6146 92.4596 76.4123 94.1094 74.9295 94.1094C73.4466 94.1094 72.2443 92.4598 72.2443 90.425C72.2443 88.3902 74.6886 83.1463 74.9295 83.1498Z" fill="#42A0F0"/>
<path d="M73.6325 91.0474C74.0248 91.1214 74.5415 90.7805 74.7866 90.2859C75.0317 89.7913 74.9123 89.3303 74.52 89.2563C74.1277 89.1823 73.611 89.5233 73.3659 90.0179C73.1208 90.5125 73.2402 90.9734 73.6325 91.0474Z" fill="white"/>
<path d="M94.9217 83.1498C95.1626 83.1535 97.6069 88.39 97.6069 90.4248C97.6069 92.4596 96.4046 94.1094 94.9217 94.1094C93.4388 94.1094 92.2365 92.4598 92.2365 90.425C92.2365 88.3902 94.6808 83.1463 94.9217 83.1498Z" fill="#42A0F0"/>
<path d="M93.6247 91.0474C94.017 91.1214 94.5337 90.7805 94.7788 90.2859C95.0239 89.7913 94.9046 89.3303 94.5123 89.2563C94.12 89.1823 93.6033 89.5233 93.3582 90.0179C93.1131 90.5125 93.2324 90.9734 93.6247 91.0474Z" fill="white"/>
<path d="M113.386 83.1498C113.627 83.1535 116.071 88.39 116.071 90.4248C116.071 92.4596 114.869 94.1094 113.386 94.1094C111.903 94.1094 110.701 92.4598 110.701 90.425C110.701 88.3902 113.145 83.1463 113.386 83.1498Z" fill="#42A0F0"/>
<path d="M112.089 91.0474C112.481 91.1214 112.998 90.7805 113.243 90.2859C113.488 89.7913 113.369 89.3303 112.977 89.2563C112.584 89.1823 112.068 89.5233 111.822 90.0179C111.577 90.5125 111.697 90.9734 112.089 91.0474Z" fill="white"/>
<g filter="url(#filter2_d_13_49)">
<path d="M112.263 74.3593H47.8638C41.6166 74.3564 35.6134 72.8626 31.111 70.1907C26.6086 67.5188 23.956 63.8759 23.7086 60.0246C23.4611 56.1734 25.638 52.4124 29.7835 49.529C33.929 46.6455 39.7217 44.8633 45.949 44.5553C46.837 40.6866 49.6686 37.087 54.0455 34.2629C58.4223 31.4389 64.1241 29.5325 70.3486 28.8119C76.5732 28.0914 83.0072 28.593 88.7456 30.2462C94.484 31.8993 99.238 34.6209 102.339 38.0279C108.025 36.8133 114.17 36.6714 119.988 37.6202C125.806 38.569 131.034 40.5655 135.006 43.355C138.977 46.1446 141.512 49.6008 142.286 53.2827C143.061 56.9647 142.04 60.7056 139.355 64.0282C137.779 67.0303 134.702 69.6472 130.565 71.5033C126.429 73.3594 121.445 74.3593 116.33 74.3593H112.263Z" fill="url(#paint0_linear_13_49)"/>
<path d="M116.33 74.1516C118.927 74.1516 121.48 73.8958 123.919 73.3912C126.278 72.9033 128.492 72.1913 130.5 71.2749C132.485 70.3691 134.226 69.284 135.673 68.0499C137.137 66.8003 138.268 65.4257 139.034 63.9642L139.042 63.9492L139.053 63.9352C140.071 62.68 140.855 61.3522 141.383 59.9887C141.927 58.5856 142.202 57.1358 142.202 55.6798C142.202 54.4263 141.997 53.1738 141.594 51.9568C141.201 50.7709 140.614 49.6045 139.849 48.4898C139.099 47.3953 138.17 46.3396 137.089 45.3521C136.018 44.374 134.788 43.4542 133.433 42.6182C132.078 41.7823 130.587 41.0233 129.002 40.3625C127.401 39.6954 125.69 39.1224 123.916 38.6594C122.109 38.188 120.219 37.8259 118.296 37.5832C116.324 37.3342 114.294 37.2079 112.262 37.2079C108.898 37.2079 105.596 37.5495 102.448 38.2231L102.182 38.2799L102.045 38.1287C99.4826 35.3181 95.7559 32.9577 91.2675 31.3028C88.9976 30.4658 86.5589 29.8191 84.0192 29.3804C81.3991 28.9279 78.6776 28.6985 75.9302 28.6985C72.2349 28.6985 68.6277 29.1088 65.2088 29.9181C61.9059 30.6998 58.8761 31.8291 56.2034 33.2745C53.546 34.7116 51.3408 36.4073 49.6489 38.3144C47.9154 40.2683 46.7825 42.3775 46.2814 44.5832L46.2439 44.7483L45.9746 44.7614C42.961 44.9069 40.0615 45.3964 37.3568 46.2163C34.7286 47.013 32.3818 48.0905 30.3815 49.419C26.2712 52.1488 24.0076 55.7055 24.0076 59.4338C24.0076 61.4207 24.6383 63.3482 25.8822 65.1625C26.48 66.0346 27.22 66.8757 28.0816 67.6625C28.935 68.4419 29.9151 69.1748 30.9947 69.8409C32.0743 70.5069 33.2622 71.1116 34.5255 71.6382C35.8008 72.1697 37.1641 72.6263 38.5775 72.9951C41.5183 73.7625 44.6424 74.1516 47.863 74.1516H112.262H116.33ZM116.33 74.3592H112.262H47.863C34.5023 74.3592 23.6712 67.6768 23.6712 59.4338C23.6712 51.5882 33.4823 45.1564 45.9483 44.5544C48.0103 35.4765 60.6479 28.4909 75.9302 28.4909C87.2678 28.4909 97.1497 32.3354 102.338 38.027C105.447 37.3617 108.786 37.0003 112.262 37.0003C128.983 37.0003 142.539 45.3635 142.539 55.6798C142.539 58.6801 141.392 61.5158 139.354 64.028C136.214 70.0232 127.093 74.3592 116.33 74.3592Z" fill="white" fill-opacity="0.5"/>
</g>
</g>
<defs>
<filter id="filter0_f_13_49" x="12.8254" y="15.3222" width="133.713" height="82.7872" filterUnits="userSpaceOnUse" color-interpolation-filters="sRGB">
<feFlood flood-opacity="0" result="BackgroundImageFix"/>
<feBlend mode="normal" in="SourceGraphic" in2="BackgroundImageFix" result="shape"/>
<feGaussianBlur stdDeviation="2" result="effect1_foregroundBlur_13_49"/>
</filter>
<filter id="filter1_f_13_49" x="0.502197" y="0.0570374" width="81.7647" height="59.4185" filterUnits="userSpaceOnUse" color-interpolation-filters="sRGB">
<feFlood flood-opacity="0" result="BackgroundImageFix"/>
<feBlend mode="normal" in="SourceGraphic" in2="BackgroundImageFix" result="shape"/>
<feGaussianBlur stdDeviation="10" result="effect1_foregroundBlur_13_49"/>
</filter>
<filter id="filter2_d_13_49" x="3.6712" y="0.490936" width="178.867" height="105.868" filterUnits="userSpaceOnUse" color-interpolation-filters="sRGB">
<feFlood flood-opacity="0" result="BackgroundImageFix"/>
<feColorMatrix in="SourceAlpha" type="matrix" values="0 0 0 0 0 0 0 0 0 0 0 0 0 0 0 0 0 0 127 0" result="hardAlpha"/>
<feOffset dx="10" dy="2"/>
<feGaussianBlur stdDeviation="15"/>
<feColorMatrix type="matrix" values="0 0 0 0 0.501961 0 0 0 0 0.501961 0 0 0 0 0.501961 0 0 0 0.302 0"/>
<feBlend mode="normal" in2="BackgroundImageFix" result="effect1_dropShadow_13_49"/>
<feBlend mode="normal" in="SourceGraphic" in2="effect1_dropShadow_13_49" result="shape"/>
</filter>
<linearGradient id="paint0_linear_13_49" x1="83.114" y1="28.4915" x2="97.5648" y2="85.1214" gradientUnits="userSpaceOnUse">
<stop stop-color="white" stop-opacity="0.604"/>
<stop offset="1" stop-color="white" stop-opacity="0.2"/>
</linearGradient>
</defs>
</svg>
